<svg width="100" height="100" viewBox="0 0 100 100" fill="none" xmlns="http://www.w3.org/2000/svg">
  <!-- Latar Belakang Kuning sesuai image_b1a2bc.png -->
  <rect width="100" height="100" rx="20" fill="#F2B705"/>
  
  <!-- Grup Ikon Kapal (Hasil Adaptasi MingCute) -->
  <g transform="translate(20, 20) scale(2.5)">
    <path d="M10 3C10 2.44772 10.4477 2 11 2H13C13.5523 2 14 2.44772 14 3V4.31954L17.3288 4.87434C18.2932 5.03507 19 5.86945 19 6.84713V10.2792L21.0585 10.9654C21.7522 11.1967 22.1002 11.9715 21.8121 12.6437L19.2906 18.5273L20.4472 19.1056C20.9412 19.3526 21.1414 19.9532 20.8944 20.4472C20.6474 20.9412 20.0467 21.1414 19.5528 20.8944L16.8944 19.5652C16.3314 19.2837 15.6686 19.2837 15.1056 19.5652L13.7888 20.2236C12.6627 20.7867 11.3372 20.7867 10.2111 20.2236L8.89441 19.5652C8.33136 19.2837 7.66861 19.2837 7.10556 19.5652L4.4472 20.8944C3.95322 21.1414 3.35255 20.9412 3.10556 20.4472C2.85857 19.9532 3.05879 19.3526 3.55277 19.1056L5.38505 18.1894L2.28304 12.7609C1.89168 12.076 2.22473 11.2043 2.97306 10.9549L5 10.2792V6.84713C5 5.86945 5.70681 5.03507 6.67119 4.87434L10 4.31954V3ZM7.25157 17.4247C8.10333 17.2625 8.99556 17.3798 9.78884 17.7764L11.1056 18.4348C11.6686 18.7163 12.3314 18.7163 12.8944 18.4348L14.2111 17.7764C15.2402 17.2619 16.4357 17.2175 17.4934 17.6433L19.6527 12.605L12 10.0541L4.47342 12.5629L7.25157 17.4247ZM17 9.61257V6.84713L12 6.01379L7 6.84713V9.61257L11.3675 8.15673C11.7781 8.01988 12.2219 8.01988 12.6324 8.15673L17 9.61257Z" fill="#09244B"/>
  </g>
</svg>
